<?xml version="1.0" encoding="UTF-8" standalone="no"?>
<!-- Generator: Adobe Illustrator 19.0.0, SVG Export Plug-In . SVG Version: 6.00 Build 0)  -->

<svg
   version="1.1"
   id="Layer_1"
   x="0px"
   y="0px"
   viewBox="0 0 16.000002 15.999999"
   xml:space="preserve"
   sodipodi:docname="NoIcon.svg"
   inkscape:version="1.2 (dc2aedaf03, 2022-05-15)"
   width="16.000002"
   height="15.999999"
   xmlns:inkscape="http://www.inkscape.org/namespaces/inkscape"
   xmlns:sodipodi="http://sodipodi.sourceforge.net/DTD/sodipodi-0.dtd"
   xmlns="http://www.w3.org/2000/svg"
   xmlns:svg="http://www.w3.org/2000/svg"><defs
   id="defs77" /><sodipodi:namedview
   id="namedview75"
   pagecolor="#ffffff"
   bordercolor="#000000"
   borderopacity="0.25"
   inkscape:showpageshadow="2"
   inkscape:pageopacity="0.0"
   inkscape:pagecheckerboard="0"
   inkscape:deskcolor="#d1d1d1"
   showgrid="false"
   inkscape:zoom="4"
   inkscape:cx="-57.875"
   inkscape:cy="3.75"
   inkscape:window-width="1920"
   inkscape:window-height="1009"
   inkscape:window-x="1912"
   inkscape:window-y="-8"
   inkscape:window-maximized="1"
   inkscape:current-layer="Layer_1" />
















<g
   id="g942"
   transform="matrix(0.03472412,0,0,0.03472412,0.02892529,0.2737327)"
   style="stroke-width:1.00794491;stroke-dasharray:none;fill:#ff0000;fill-opacity:1"><path
     d="M 285.08,230.397 456.218,59.27 c 6.076,-6.077 6.076,-15.911 0,-21.986 L 423.511,4.565 c -2.913,-2.911 -6.866,-4.55 -10.992,-4.55 -4.127,0 -8.08,1.639 -10.993,4.55 L 230.388,175.705 59.25,4.565 c -2.913,-2.911 -6.866,-4.55 -10.993,-4.55 -4.126,0 -8.08,1.639 -10.992,4.55 L 4.558,37.284 c -6.077,6.075 -6.077,15.909 0,21.986 L 175.696,230.398 4.575,401.505 c -6.074,6.077 -6.074,15.911 0,21.986 l 32.709,32.719 c 2.911,2.911 6.865,4.55 10.992,4.55 4.127,0 8.08,-1.639 10.994,-4.55 L 230.387,285.09 401.505,456.21 c 2.913,2.911 6.866,4.55 10.993,4.55 4.128,0 8.081,-1.639 10.992,-4.55 l 32.709,-32.719 c 6.074,-6.075 6.074,-15.909 0,-21.986 z"
     id="path889"
     style="stroke-width:1.00794491;stroke-dasharray:none;fill:#ff0000;fill-opacity:1" /><g
     id="g891"
     style="stroke-width:1.00794491;stroke-dasharray:none;fill:#ff0000;fill-opacity:1">
</g><g
     id="g893"
     style="stroke-width:1.00794491;stroke-dasharray:none;fill:#ff0000;fill-opacity:1">
</g><g
     id="g895"
     style="stroke-width:1.00794491;stroke-dasharray:none;fill:#ff0000;fill-opacity:1">
</g><g
     id="g897"
     style="stroke-width:1.00794491;stroke-dasharray:none;fill:#ff0000;fill-opacity:1">
</g><g
     id="g899"
     style="stroke-width:1.00794491;stroke-dasharray:none;fill:#ff0000;fill-opacity:1">
</g><g
     id="g901"
     style="stroke-width:1.00794491;stroke-dasharray:none;fill:#ff0000;fill-opacity:1">
</g><g
     id="g903"
     style="stroke-width:1.00794491;stroke-dasharray:none;fill:#ff0000;fill-opacity:1">
</g><g
     id="g905"
     style="stroke-width:1.00794491;stroke-dasharray:none;fill:#ff0000;fill-opacity:1">
</g><g
     id="g907"
     style="stroke-width:1.00794491;stroke-dasharray:none;fill:#ff0000;fill-opacity:1">
</g><g
     id="g909"
     style="stroke-width:1.00794491;stroke-dasharray:none;fill:#ff0000;fill-opacity:1">
</g><g
     id="g911"
     style="stroke-width:1.00794491;stroke-dasharray:none;fill:#ff0000;fill-opacity:1">
</g><g
     id="g913"
     style="stroke-width:1.00794491;stroke-dasharray:none;fill:#ff0000;fill-opacity:1">
</g><g
     id="g915"
     style="stroke-width:1.00794491;stroke-dasharray:none;fill:#ff0000;fill-opacity:1">
</g><g
     id="g917"
     style="stroke-width:1.00794491;stroke-dasharray:none;fill:#ff0000;fill-opacity:1">
</g><g
     id="g919"
     style="display:inline;stroke-width:1.00794;stroke-dasharray:none;fill:#ff0000;fill-opacity:1"
     inkscape:label="g919">
</g></g></svg>
